# AST/ASF file generated using VICON BodyLanguage
# -----------------------------------------------
:version 1.10
:name VICON
:units
  mass 1.0
  length 0.45
  angle deg
:documentation
   .ast/.asf automatically generated from VICON data using
   VICON BodyBuilder and BodyLanguage model FoxedUp or BRILLIANT.MOD
:root
   order TX TY TZ RX RY RZ
   axis XYZ
   position 0 0 0  
   orientation 0 0 0 
:bonedata
  begin
     id 1 
     name lhipjoint
     direction 0.700308 -0.549349 0.455834 
     length 2.59063 
     axis 0 0 0  XYZ
  end
  begin
     id 2 
     name lfemur
     direction 0.34202 -0.939693 0  
     length 6.31066  
     axis 0 0 20  XYZ
    dof rx ry rz
    limits (-160.0 20.0)
           (-70.0 70.0)
           (-60.0 70.0)
  end
  begin
     id 3 
     name ltibia
     direction 0.34202 -0.939693 0   
     length 7.36093   
     axis 0 0 20   XYZ
    dof rx
    limits (-10.0 170.0)
  end
  begin
     id 4 
     name lfoot
     direction 0.0905332 -0.248738 0.96433   
     length 2.0233   
     axis -90 7.62852e-016 20   XYZ
    dof rx rz
    limits (-45.0 90.0)
           (-70.0 20.0)
  end
  begin
     id 5 
     name ltoes
     direction 1.53573e-011 -4.21855e-011 1   
     length 1.01524   
     axis -90 7.62852e-016 20   XYZ
    dof rx
    limits (-90.0 20.0)
  end
  begin
     id 6 
     name rhipjoint
     direction -0.61416 -0.607328 0.503944   
     length 2.34332  
     axis 0 0 0  XYZ 
  end
  begin
     id 7 
     name rfemur
     direction -0.34202 -0.939693 0   
     length 6.58548   
     axis 0 0 -20   XYZ
    dof rx ry rz
    limits (-160.0 20.0)
           (-70.0 70.0)
           (-70.0 60.0)
  end
  begin
     id 8 
     name rtibia
     direction -0.34202 -0.939693 0   
     length 7.20707   
     axis 0 0 -20   XYZ
    dof rx
    limits (-10.0 170.0)
 end
 begin
     id 9 
     name rfoot
     direction -0.136772 -0.375778 0.916561   
     length 1.92184  
     axis -90 -7.62852e-016 -20   XYZ
    dof rx rz
    limits (-45.0 90.0)
           (-20.0 70.0)
  end
  begin
     id 10 
     name rtoes
     direction -1.53535e-011 -4.21828e-011 1   
     length 0.951089   
     axis -90 -7.62852e-016 -20   XYZ
    dof rx
    limits (-90.0 20.0)
  end
  begin
     id 11 
     name lowerback
     direction -0.0444974 0.988086 -0.147332   
     length 1.9609   
     axis 0 0 0   XYZ
    dof rx ry rz
    limits (-20.0 45.0)
           (-30.0 30.0)
           (-30.0 30.0)
  end
  begin
     id 12 
     name upperback
     direction 0.00613146 0.999513 0.0306081   
     length 1.94944   
     axis 0 0 0   XYZ
    dof rx ry rz
    limits (-20.0 45.0)
           (-30.0 30.0)
           (-30.0 30.0)
  end
  begin
     id 13 
     name thorax
     direction 0.0254621 0.994518 0.101418   
     length 2.0119   
     axis 0 0 0   XYZ
    dof rx ry rz
    limits (-20.0 45.0)
           (-30.0 30.0)
           (-30.0 30.0)
  end
  begin
     id 14 
     name lowerneck
     direction 0.0168698 0.977854 0.208608   
     length 1.6375   
     axis 0 0 0   XYZ
    dof rx ry rz
    limits (-20.0 45.0)
           (-30.0 30.0)
           (-30.0 30.0)
  end
  begin
     id 15 
     name upperneck
     direction -0.0283988 0.989338 -0.142843   
     length 1.6851   
     axis 0 0 0   XYZ
    dof rx ry rz
    limits (-20.0 45.0)
           (-30.0 30.0)
           (-30.0 30.0)
  end
  begin
     id 16
     name head
     direction -0.0129422 0.99741 -0.0707489  
     length 1.69029  
     axis 0 0 0   XYZ
    dof rx ry rz
    limits (-20.0 45.0)
           (-30.0 30.0)
           (-30.0 30.0)
  end
  begin
     id 17 
     name lclavicle
     direction 0.820295 0.564628 -0.0911715  
     length 3.16484  
     axis 0 0 0   XYZ
    dof ry rz
    limits (-20.0 10.0)
           (0.0 20.0)
  end
  begin
     id 18 
     name lhumerus
     direction 1 -4.48969e-011 1.00186e-027   
     length 5.17853   
     axis 180 -30 -90   XYZ
    dof rx ry rz
    limits (-60.0 90.0)
           (-90.0 90.0)
           (-90.0 90.0)
  end
  begin
     id 19
     name lradius
     direction 1 -4.48966e-011 -1.52922e-027   
     length 3.40399   
     axis 180 -30 -90   XYZ
    dof rx
    limits (-10.0 170.0)
  end
  begin
     id 20
     name lwrist
     direction 1 -4.48981e-011 -3.80893e-027   
     length 1.70199   
     axis 1.1049e-015 90 90   XYZ
    dof ry
    limits (-180.0 0.0)
 end
  begin
     id 21 
     name lhand
     direction 1 -4.48957e-011 -7.61786e-027   
     length 0.708964   
     axis 4.86085e-015 90 90   XYZ
    dof rx rz
    limits (-90.0 90.0)
           (-45.0 45.0)
  end
  begin
     id 22 
     name lfingers
     direction 1 -4.48929e-011 -1.52357e-026   
     length 0.571585   
     axis 9.7217e-015 90 90   XYZ
    dof rx
    limits (0.0 90.0)
  end
  begin
     id 23
     name lthumb
     direction 0.707107 -6.34905e-011 0.707107   
     length 0.820685   
     axis -90 45 2.85299e-015   XYZ
    dof rx rz
    limits (-45.0 45.0)
           (-45.0 45.0)
  end
  begin
     id 24 
     name rclavicle
     direction -0.858602 0.463947 -0.218075   
     length 3.35137  
     axis 0 0 0   XYZ 
    dof ry rz
    limits (-10.0 20.0)
           (-20.0 0.0)
  end
  begin
     id 25 
     name rhumerus
     direction -1 -4.48969e-011 -1.98511e-027  
     length 5.42351   
     axis 180 30 90   XYZ
    dof rx ry rz
    limits (-90.0 60.0)
           (-90.0 90.0)
           (-90.0 90.0)
  end
  begin
     id 26 
     name rradius
     direction -1 -4.48961e-011 -2.82624e-027   
     length 3.42066   
     axis 180 30 90   XYZ
    dof rx
    limits (-10.0 170.0)
  end
  begin
     id 27 
     name rwrist
     direction -1 -4.48966e-011 -3.80893e-027   
     length 1.71033   
     axis 1.1049e-015 -90 -90   XYZ
    dof ry
    limits (-180.0 0.0)
  end
  begin
     id 28
     name rhand
     direction -1 -4.48964e-011 -7.61786e-027   
     length 0.743608   
     axis 4.86085e-015 -90 -90   XYZ
    dof rx rz
    limits (-90.0 90.0)
           (-45.0 45.0)
  end
  begin
     id 29
     name rfingers
     direction -1 -4.48961e-011 -1.52357e-026   
     length 0.599516   
     axis 9.7217e-015 -90 -90   XYZ
    dof rx
    limits (0.0 90.0)
  end
  begin
     id 30
     name rthumb
     direction -0.707107 -6.34913e-011 0.707107   
     length 0.860789   
     axis -90 -45 -2.85299e-015   XYZ
    dof rx rz
    limits (-45.0 45.0)
           (-45.0 45.0)
  end
:hierarchy
  begin
    root lhipjoint rhipjoint lowerback
    lhipjoint lfemur
    lfemur ltibia
    ltibia lfoot
    lfoot ltoes
    rhipjoint rfemur
    rfemur rtibia
    rtibia rfoot
    rfoot rtoes
    lowerback upperback
    upperback thorax
    thorax lowerneck lclavicle rclavicle
    lowerneck upperneck
    upperneck head
    lclavicle lhumerus
    lhumerus lradius
    lradius lwrist
    lwrist lhand lthumb
    lhand lfingers
    rclavicle rhumerus
    rhumerus rradius
    rradius rwrist
    rwrist rhand rthumb
    rhand rfingers
  end

#!OML:ASF E:\mmandel\Project 1\Capture day 1\Session 2\Subject.ASF
:FULLY-SPECIFIED
:DEGREES
896
root 5.96092 14.6161 -3.32427 45.7373 85.2475 22.8022
lowerback 29.7187 1.70273 -6.05206
upperback 4.50909 0.568966 -1.0028
thorax -11.3451 0.649536 2.10255
lowerneck -22.3031 -0.868021 1.02189
upperneck 3.20066 -0.604776 -6.22995
head 4.45443 -0.629551 -2.19287
rclavicle -3.97569e-016 -4.96962e-015
rhumerus -4.00781 -2.78492 -83.7594
rradius 79.2892
rwrist -10.5338
rhand -18.4193 40.7037
rfingers 7.12502
rthumb 7.86568 10.8701
lclavicle -3.97569e-016 -4.96962e-015
lhumerus -0.356519 -30.1287 63.7358
lradius 60.8316
lwrist 24.5902
lhand -17.9532 -28.6192
lfingers 7.12502
lthumb 8.31545 1.19717
rfemur -58.5638 -10.8726 1.4462
rtibia 60.0615
rfoot -22.5649 -2.47225
rtoes -19.7531
lfemur -61.123 11.2779 -19.6411
ltibia 66.8403
lfoot -23.7001 -5.85924
ltoes 0.940533
897
root 5.95647 14.5992 -3.30179 45.628 85.1926 22.713
lowerback 29.7038 1.70198 -6.11715
upperback 4.46645 0.539042 -1.04392
thorax -11.3847 0.638363 2.1041
lowerneck -22.1307 -0.755824 1.16397
upperneck 3.04392 -0.479494 -6.45257
head 4.38556 -0.574224 -2.27072
rclavicle 2.98177e-015 -1.21259e-014
rhumerus -3.92565 -2.80878 -84.0027
rradius 79.1044
rwrist -10.8548
rhand -18.6066 41.0062
rfingers 7.12502
rthumb 7.68483 11.1659
lclavicle 2.98177e-015 -1.21259e-014
lhumerus -0.139081 -29.8913 63.7449
lradius 60.8205
lwrist 24.2756
lhand -17.8958 -28.6823
lfingers 7.12502
lthumb 8.37091 1.13187
rfemur -58.7113 -10.5897 1.3386
rtibia 60.3501
rfoot -22.7175 -2.36199
rtoes -19.108
lfemur -61.2383 11.3829 -19.5963
ltibia 67.0175
lfoot -23.7425 -5.74655
ltoes -0.0660797
898
root 5.95196 14.5799 -3.2782 45.3214 85.1772 22.4677
lowerback 29.7037 1.69687 -6.12029
upperback 4.45962 0.528559 -1.06281
thorax -11.3917 0.633497 2.08818
lowerneck -21.7645 -0.635622 1.354
upperneck 2.72243 -0.348239 -6.83825
head 4.23833 -0.518051 -2.40398
rclavicle 6.36111e-015 4.09496e-014
rhumerus -3.87384 -2.9543 -84.2448
rradius 79.0599
rwrist -10.9839
rhand -18.6939 41.1556
rfingers 7.12502
rthumb 7.60064 11.3122
lclavicle 6.36111e-015 4.09496e-014
lhumerus 0.148574 -29.652 63.7941
lradius 60.7616
lwrist 23.9421
lhand -17.8473 -28.9759
lfingers 7.12502
lthumb 8.41773 0.836375
rfemur -58.8402 -10.321 1.29092
rtibia 60.6466
rfoot -22.8781 -2.54069
rtoes -19.8705
lfemur -61.3061 11.4955 -19.499
ltibia 67.1959
lfoot -23.8627 -5.72468
ltoes -0.496864
899
root 5.94654 14.5609 -3.25139 45.4265 85.2421 22.6131
lowerback 29.6177 1.67385 -6.05065
upperback 4.5127 0.532382 -1.06524
thorax -11.2864 0.629934 2.04539
lowerneck -21.5529 -0.531215 1.25172
upperneck 2.56817 -0.186893 -6.87607
head 4.16649 -0.434634 -2.38068
rclavicle 2.5842e-015 2.32578e-014
rhumerus -3.71071 -3.18208 -84.4313
rradius 79.0593
rwrist -11.0436
rhand -18.9139 41.1412
rfingers 7.12502
rthumb 7.38825 11.2902
lclavicle 2.5842e-015 2.32578e-014
lhumerus 0.663171 -29.4726 63.7547
lradius 60.6729
lwrist 23.7315
lhand -17.8676 -29.3757
lfingers 7.12502
lthumb 8.39815 0.437369
rfemur -58.9921 -10.1441 1.31444
rtibia 60.9532
rfoot -23.0028 -3.05774
rtoes -22.0915
lfemur -61.388 11.5909 -19.3893
ltibia 67.3595
lfoot -23.9601 -5.62164
ltoes -1.26124
900
root 5.94144 14.5518 -3.22609 47.3394 85.431 24.6051
lowerback 29.703 1.57137 -5.93722
upperback 4.50614 0.433377 -1.05608
thorax -11.3292 0.58255 2.02748
lowerneck -21.8269 -0.486776 1.09302
upperneck 2.89106 -0.082979 -6.74186
head 4.31181 -0.389894 -2.30827
rclavicle 3.22031e-014 4.53229e-014
rhumerus -3.67262 -3.29108 -84.5511
rradius 79.0622
rwrist -11.1909
rhand -19.1371 41.1657
rfingers 7.12502
rthumb 7.17278 11.3073
lclavicle 3.22031e-014 4.53229e-014
lhumerus 1.0475 -29.2957 63.7924
lradius 60.6188
lwrist 23.4378
lhand -17.9442 -29.6837
lfingers 7.12502
lthumb 8.32423 0.132288
rfemur -58.9526 -10.1779 1.31807
rtibia 61.2365
rfoot -23.2175 -3.4484
rtoes -23.7501
lfemur -61.4096 11.533 -19.3398
ltibia 67.4658
lfoot -23.9248 -5.68544
ltoes -1.27925
901
root 5.93757 14.5411 -3.20055 50.4702 85.6102 27.8068
lowerback 29.748 1.42263 -5.88394
upperback 4.46193 0.25334 -1.06634
thorax -11.3893 0.50054 2.05339
lowerneck -22.0668 -0.515514 1.19647
upperneck 3.19604 -0.130925 -6.78832
head 4.44125 -0.427499 -2.34931
rclavicle -1.03368e-014 -5.92378e-014
rhumerus -3.73812 -3.30982 -84.7226
rradius 79.0406
rwrist -11.32
rhand -19.2654 41.1859
rfingers 7.12502
rthumb 7.04894 11.3233
lclavicle -1.03368e-014 -5.92378e-014
lhumerus 1.14916 -28.9685 63.9637
lradius 60.6185
lwrist 23.0568
lhand -17.8305 -29.7454
lfingers 7.12502
lthumb 8.43394 0.0661501
rfemur -58.8708 -10.3078 1.25978
rtibia 61.5281
rfoot -23.4853 -3.53756
rtoes -24.2787
lfemur -61.4301 11.2945 -19.3046
ltibia 67.556
lfoot -23.8997 -5.76763
ltoes -0.523857
902
root 5.93519 14.5196 -3.16939 51.457 85.7758 28.8842
lowerback 29.7444 1.35873 -5.82162
upperback 4.43515 0.193178 -1.03229
thorax -11.4144 0.471934 2.07954
lowerneck -21.9486 -0.513165 1.32355
upperneck 3.21399 -0.152346 -6.91258
head 4.42933 -0.443909 -2.41024
rclavicle -6.55989e-015 -3.18055e-015
rhumerus -3.82385 -3.44755 -84.8994
rradius 79.0136
rwrist -11.3092
rhand -19.3893 41.2966
rfingers 7.12502
rthumb 6.92934 11.43
lclavicle -6.55989e-015 -3.18055e-015
lhumerus 1.3417 -28.7347 64.1218
lradius 60.5124
lwrist 22.8805
lhand -17.6316 -29.8029
lfingers 7.12502
lthumb 8.62587 0.000861773
rfemur -58.8666 -10.2494 1.31013
rtibia 61.8559
rfoot -23.7269 -3.50921
rtoes -24.0147
lfemur -61.4431 11.1533 -19.0737
ltibia 67.7055
lfoot -23.9389 -5.69263
ltoes -0.203991
903
root 5.93336 14.5027 -3.13514 51.2104 86.0111 28.776
lowerback 29.8307 1.31607 -5.6994
upperback 4.41267 0.179553 -0.948196
thorax -11.4838 0.464347 2.11014
lowerneck -21.6827 -0.430932 1.3204
upperneck 3.14363 -0.0425629 -6.99017
head 4.3735 -0.389873 -2.42039
rclavicle 3.18055e-015 4.85035e-014
rhumerus -3.8515 -3.55802 -85.0106
rradius 78.9654
rwrist -11.3103
rhand -19.5015 41.3561
rfingers 7.12502
rthumb 6.82108 11.4859
lclavicle 3.18055e-015 4.85035e-014
lhumerus 1.57065 -28.4716 64.3138
lradius 60.4066
lwrist 22.6742
lhand -17.5021 -29.9919
lfingers 7.12502
lthumb 8.75086 -0.193296
rfemur -58.8249 -10.0928 1.49146
rtibia 62.1789
rfoot -23.9084 -3.66356
rtoes -24.0187
lfemur -61.4117 11.145 -18.7372
ltibia 67.8559
lfoot -23.9436 -5.77406
ltoes 0.238017
904
root 5.92994 14.4897 -3.10087 53.1327 86.254 30.7709
lowerback 29.7786 1.1912 -5.55949
upperback 4.44218 0.0741349 -0.927446
thorax -11.4155 0.409987 2.09431
lowerneck -21.3806 -0.330796 1.30076
upperneck 2.97873 0.0765352 -6.92833
head 4.28172 -0.319419 -2.3819
rclavicle -1.82882e-014 -2.66371e-014
rhumerus -3.67113 -3.56701 -85.1374
rradius 78.7643
rwrist -11.381
rhand -19.7874 41.3455
rfingers 7.12502
rthumb 6.5451 11.4666
lclavicle -1.82882e-014 -2.66371e-014
lhumerus 1.76996 -27.9362 64.5264
lradius 60.4815
lwrist 22.2891
lhand -17.4493 -30.0687
lfingers 7.12502
lthumb 8.80177 -0.272217
rfemur -58.8429 -10.0846 1.62156
rtibia 62.5153
rfoot -24.0205 -4.0375
rtoes -24.6525
lfemur -61.4658 11.0354 -18.5225
ltibia 67.9894
lfoot -23.8741 -5.95204
ltoes 1.16159
905
root 5.92572 14.4711 -3.06452 56.0754 86.4079 33.7727
lowerback 29.7077 1.11466 -5.50818
upperback 4.47035 0.00135003 -0.925713
thorax -11.3414 0.373583 2.09502
lowerneck -21.2551 -0.308343 1.3538
upperneck 2.89497 0.0818571 -6.88357
head 4.23658 -0.309614 -2.37391
rclavicle 3.97569e-015 1.92821e-014
rhumerus -3.60849 -3.65871 -85.2558
rradius 78.5959
rwrist -11.3714
rhand -20.1914 41.4739
rfingers 7.12502
rthumb 6.15506 11.5833
lclavicle 3.97569e-015 1.92821e-014
lhumerus 2.12973 -27.6392 64.6639
lradius 60.4096
lwrist 22.1678
lhand -17.6132 -30.3663
lfingers 7.12502
lthumb 8.64364 -0.563272
rfemur -58.9444 -10.0949 1.6727
rtibia 62.8772
rfoot -24.1282 -4.48525
rtoes -25.192
lfemur -61.5538 10.9773 -18.425
ltibia 68.1248
lfoot -23.8351 -6.03471
ltoes 1.21962
906
root 5.92053 14.4509 -3.02525 57.4311 86.5582 35.1857
lowerback 29.7248 1.1107 -5.45557
upperback 4.42358 0.0126589 -0.876732
thorax -11.4059 0.378806 2.11624
lowerneck -21.194 -0.326479 1.39017
upperneck 2.94964 0.0524107 -6.92313
head 4.24368 -0.327156 -2.39493
rclavicle -1.23246e-014 -4.11484e-014
rhumerus -3.70248 -3.78064 -85.2961
rradius 78.4916
rwrist -11.3707
rhand -20.4252 41.5944
rfingers 7.12502
rthumb 5.92928 11.6974
lclavicle -1.23246e-014 -4.11484e-014
lhumerus 2.54493 -27.6587 64.7566
lradius 60.1717
lwrist 22.2909
lhand -17.7143 -30.5976
lfingers 7.12502
lthumb 8.54601 -0.790582
rfemur -59.0988 -10.0297 1.83422
rtibia 63.2694
rfoot -24.2708 -4.91028
rtoes -25.7373
lfemur -61.657 11.0749 -18.2574
ltibia 68.2468
lfoot -23.8192 -6.2052
ltoes 0.793748
